{
  "accessors": [
    {
      "bufferView": 2,
      "componentType": 5126,
      "count": 3286,
      "max": [
        0.015134426765143871,
        0.01778637059032917,
        0.015134426765143871
      ],
      "min": [
        -0.015134426765143871,
        0.015283863991498947,
        -0.015134426765143871
      ],
      "type": "VEC3"
    },
    {
      "bufferView": 2,
      "byteOffset": 39432,
      "componentType": 5126,
      "count": 3286,
      "max": [
        0.9987954497337341,
        1.0,
        0.9987955093383789
      ],
      "min": [
        -0.9987954497337341,
        -1.0,
        -0.9987955093383789
      ],
      "type": "VEC3"
    },
    {
      "bufferView": 3,
      "componentType": 5126,
      "count": 3286,
      "max": [
        0.9891870021820068,
        7.121899398043752e-05,
        0.9412376880645752,
        1.0
      ],
      "min": [
        -0.9412376880645752,
        -0.3445747494697571,
        -0.9412376880645752,
        1.0
      ],
      "type": "VEC4"
    },
    {
      "bufferView": 1,
      "componentType": 5126,
      "count": 3286,
      "max": [
        0.9998999834060669,
        0.9999000430107117
      ],
      "min": [
        9.997375309467316e-05,
        9.997375309467316e-05
      ],
      "type": "VEC2"
    },
    {
      "bufferView": 1,
      "byteOffset": 26288,
      "componentType": 5126,
      "count": 3286,
      "max": [
        0.9998999834060669,
        0.9999000430107117
      ],
      "min": [
        9.997375309467316e-05,
        9.997375309467316e-05
      ],
      "type": "VEC2"
    },
    {
      "bufferView": 1,
      "byteOffset": 52576,
      "componentType": 5126,
      "count": 3286,
      "max": [
        0.9998999834060669,
        0.9999000430107117
      ],
      "min": [
        9.997375309467316e-05,
        9.997375309467316e-05
      ],
      "type": "VEC2"
    },
    {
      "bufferView": 1,
      "byteOffset": 78864,
      "componentType": 5126,
      "count": 3286,
      "max": [
        0.9998999834060669,
        0.9999000430107117
      ],
      "min": [
        9.997375309467316e-05,
        9.997375309467316e-05
      ],
      "type": "VEC2"
    },
    {
      "bufferView": 0,
      "componentType": 5125,
      "count": 5376,
      "type": "SCALAR"
    }
  ],
  "asset": {
    "extras": {
      "author": "RadioactiveAG (https://sketchfab.com/RadioactiveAG)",
      "license": "CC-BY-4.0 (http://creativecommons.org/licenses/by/4.0/)",
      "source": "https://sketchfab.com/3d-models/gold-dragon-coin-001-rag-6467afed3bce4317b326159e8eecbb87",
      "title": "Gold_dragon_coin_001_RAG"
    },
    "generator": "Sketchfab-14.91.0",
    "version": "2.0"
  },
  "bufferViews": [
    {
      "buffer": 0,
      "byteLength": 21504,
      "name": "floatBufferViews",
      "target": 34963
    },
    {
      "buffer": 0,
      "byteLength": 105152,
      "byteOffset": 21504,
      "byteStride": 8,
      "name": "floatBufferViews",
      "target": 34962
    },
    {
      "buffer": 0,
      "byteLength": 78864,
      "byteOffset": 126656,
      "byteStride": 12,
      "name": "floatBufferViews",
      "target": 34962
    },
    {
      "buffer": 0,
      "byteLength": 52576,
      "byteOffset": 205520,
      "byteStride": 16,
      "name": "floatBufferViews",
      "target": 34962
    }
  ],
  "buffers": [
    {
      "byteLength": 258096,
      "uri": "scene.bin"
    }
  ],
  "images": [
    {
      "uri": "textures/Material_baseColor.png"
    },
    {
      "uri": "textures/Material_metallicRoughness.png"
    },
    {
      "uri": "textures/Material_normal.png"
    }
  ],
  "materials": [
    {
      "doubleSided": true,
      "name": "Material",
      "normalTexture": {
        "index": 2
      },
      "pbrMetallicRoughness": {
        "baseColorTexture": {
          "index": 0
        },
        "metallicRoughnessTexture": {
          "index": 1
        }
      }
    }
  ],
  "meshes": [
    {
      "name": "Object_0",
      "primitives": [
        {
          "attributes": {
            "NORMAL": 1,
            "POSITION": 0,
            "TANGENT": 2,
            "TEXCOORD_0": 3,
            "TEXCOORD_1": 4,
            "TEXCOORD_2": 5,
            "TEXCOORD_3": 6
          },
          "indices": 7,
          "material": 0,
          "mode": 4
        }
      ]
    }
  ],
  "nodes": [
    {
      "children": [
        1
      ],
      "matrix": [
        1.0,
        0.0,
        0.0,
        0.0,
        0.0,
        2.220446049250313e-16,
        -1.0,
        0.0,
        0.0,
        1.0,
        2.220446049250313e-16,
        0.0,
        0.0,
        0.0,
        0.0,
        1.0
      ],
      "name": "Sketchfab_model"
    },
    {
      "children": [
        2
      ],
      "name": "root"
    },
    {
      "children": [
        3
      ],
      "matrix": [
        1.0,
        0.0,
        0.0,
        0.0,
        0.0,
        2.220446049250313e-16,
        1.0,
        0.0,
        0.0,
        -1.0,
        2.220446049250313e-16,
        0.0,
        0.0,
        0.0,
        0.0,
        1.0
      ],
      "name": "GLTF_SceneRootNode"
    },
    {
      "children": [
        4
      ],
      "matrix": [
        -1.9999999999999467,
        3.2584136152242533e-07,
        -3.2584136152242533e-07,
        0.0,
        -3.2584136152242533e-07,
        2.6645352591003757e-14,
        1.9999999999999734,
        0.0,
        3.2584136152242533e-07,
        1.9999999999999734,
        2.6645352591003757e-14,
        0.0,
        0.0,
        0.0186404250562191,
        -0.01678137108683586,
        1.0
      ],
      "name": "Cylinder.001_0"
    },
    {
      "mesh": 0,
      "name": "Object_4"
    }
  ],
  "samplers": [
    {
      "magFilter": 9729,
      "minFilter": 9987,
      "wrapS": 10497,
      "wrapT": 10497
    }
  ],
  "scene": 0,
  "scenes": [
    {
      "name": "Sketchfab_Scene",
      "nodes": [
        0
      ]
    }
  ],
  "textures": [
    {
      "sampler": 0,
      "source": 0
    },
    {
      "sampler": 0,
      "source": 1
    },
    {
      "sampler": 0,
      "source": 2
    }
  ]
}
